<svg preserveaspectratio="xMidYMid meet" style="background:#ffffff" viewbox="0,0,540,570"><g class="title" transform="translate(5, 21)"><text font-family="Roboto">FGA for Nikola Jokić  during DEN vs ATL - 12/08/2024 </text></g><g class="footer" transform="translate(10, 560)"><text font-family="Roboto"><tspan>FG%: </tspan><tspan font-weight="800">59%</tspan><tspan> (17/29)</tspan></text></g><g><g class="legend" transform="translate(520, 560)"><text font-family="Roboto" text-anchor="end">Miss</text><path d="M -5,-5 L 5,5 M 5,-5 L -5,5" fill="rgba(255,255,255, 0.1" stroke="rgba(187, 0, 0, 0.8)" stroke-width="3" transform="translate(-44, -6)"></path><text font-family="Roboto" text-anchor="end" transform="translate(-80, 0)">Made</text><path d="M -5, 0 a 5,5 0 1,0 10,0 a 5,5 0 1,0 -10,0" fill="rgba(255,255,255, 0.1" stroke="rgba(10, 158, 117, 0.8)" stroke-width="3" transform="translate(-130, -6)"></path></g></g><g class="court" transform="translate(20, 50)"><rect fill="#f3f7fd" height="510" width="540" x="-20" y="-20"></rect><g class="markings"><path class="mark" d="M470,0v140" fill="none" stroke="#1d428a" stroke-width="2.6" style="stroke-linecap:round"></path><path class="mark" d="M30,0v140" fill="none" stroke="#1d428a" stroke-width="2.6" style="stroke-linecap:round"></path><path class="mark" d="M330,0v190" fill="none" stroke="#1d428a" stroke-width="2.6" style="stroke-linecap:round"></path><path class="mark" d="M170,0v190" fill="none" stroke="#1d428a" stroke-width="2.6" style="stroke-linecap:round"></path><path class="mark" d="M310,0v190" fill="none" stroke="#1d428a" stroke-width="2.6" style="stroke-linecap:round"></path><path class="mark" d="M190,0v190" fill="none" stroke="#1d428a" stroke-width="2.6" style="stroke-linecap:round"></path><path class="mark" d="M330,190H170" fill="none" stroke="#1d428a" stroke-width="2.6" style="stroke-linecap:round"></path><path class="mark" d="M280,40h-60" fill="none" stroke="#1d428a" stroke-width="2.6" style="stroke-linecap:round"></path><path class="mark" d="M250,40v2.5" fill="none" stroke="#1d428a" stroke-width="2.6" style="stroke-linecap:round"></path><path class="mark" d="M290,40v10" fill="none" stroke="#1d428a" stroke-width="2.6" style="stroke-linecap:round"></path><path class="mark" d="M210,40v10" fill="none" stroke="#1d428a" stroke-width="2.6" style="stroke-linecap:round"></path><path class="mark" d="M250,42.5c4.1,0,7.5,3.4,7.5,7.5s-3.4,7.5-7.5,7.5s-7.5-3.4-7.5-7.5S245.9,42.5,250,42.5z" fill="none" stroke="#1d428a" stroke-width="2.6" style="stroke-linecap:round"></path><path class="mark" d="M0,0v470h190c0-33.1,26.9-60,60-60s60,26.9,60,60h190V0H0z" fill="none" stroke="#1d428a" stroke-width="2.6" style="stroke-linecap:round"></path><path class="mark" d="M250,410c-33.1,0-60,26.9-60,60h40c0-11,9-20,20-20s20,9,20,20h40C310,436.9,283.1,410,250,410z" fill="none" stroke="#1d428a" stroke-width="2.6" style="stroke-linecap:round"></path><path class="mark" d="M250,450c-11,0-20,9-20,20h40C270,459,261,450,250,450z" fill="none" stroke="#1d428a" stroke-width="2.6" style="stroke-linecap:round"></path><path class="mark" d="M310,190c0,33.1-26.9,60-60,60s-60-26.9-60-60c0,33.1,26.9,60,60,60S310,223.1,310,190z" fill="none" stroke="#1d428a" stroke-width="2.6" style="stroke-linecap:round"></path><path class="mark" d="M310,190c0-33.1-26.9-60-60-60s-60,26.9-60,60c0-33.1,26.9-60,60-60S310,156.9,310,190z" fill="none" stroke="#1d428a" stroke-width="2.6" style="stroke-dasharray:5,10"></path><path class="mark" d="M290,50c0,22.1-17.9,40-40,40s-40-17.9-40-40c0,22.1,17.9,40,40,40S290,72.1,290,50z" fill="none" stroke="#1d428a" stroke-width="2.6" style="stroke-linecap:round"></path><path class="mark" d="M469.8,139.9c-49.7,121.4-188.3,179.6-309.7,129.9c-59-24.1-105.8-70.9-129.9-129.9 c49.7,121.4,188.3,179.6,309.7,129.9C398.9,245.7,445.7,198.9,469.8,139.9z" fill="none" stroke="#1d428a" stroke-width="2.6" style="stroke-linecap:round"></path><path class="mark" d="M140,0v5" fill="none" stroke="#1d428a" stroke-width="2.6" style="stroke-linecap:round"></path><path class="mark" d="M359.9,0v5" fill="none" stroke="#1d428a" stroke-width="2.6" style="stroke-linecap:round"></path><path class="mark" d="M470,281.6h30" fill="none" stroke="#1d428a" stroke-width="2.6" style="stroke-linecap:round"></path><path class="mark" d="M0,286.7h30" fill="none" stroke="#1d428a" stroke-width="2.6" style="stroke-linecap:round"></path><path class="mark" d="M170,69.8h-10" fill="none" stroke="#1d428a" stroke-width="2.6" style=""></path><path class="mark" d="M170,79.9h-10" fill="none" stroke="#1d428a" stroke-width="2.6" style=""></path><path class="mark" d="M170,109.9h-10" fill="none" stroke="#1d428a" stroke-width="2.6" style=""></path><path class="mark" d="M170,140h-10" fill="none" stroke="#1d428a" stroke-width="2.6" style=""></path><path class="mark" d="M340,69.8h-10" fill="none" stroke="#1d428a" stroke-width="2.6" style=""></path><path class="mark" d="M340,79.9h-10" fill="none" stroke="#1d428a" stroke-width="2.6" style=""></path><path class="mark" d="M340,109.9h-10" fill="none" stroke="#1d428a" stroke-width="2.6" style=""></path><path class="mark" d="M0,140h30" fill="none" stroke="#1d428a" stroke-width="2.6"></path><path class="mark" d="M470,139.9h30" fill="none" stroke="#1d428a" stroke-width="2.6"></path></g><g class="shot"><title>Jokić, Nikola - Q1 11:49</title><path d="M -5, 0 a 5,5 0 1,0 10,0 a 5,5 0 1,0 -10,0" fill="rgba(255,255,255, 0.1" stroke="rgba(10, 158, 117, 0.8)" stroke-width="3" transform="translate(131, 264)"></path></g><g class="shot"><title>Jokić, Nikola - Q1 8:10</title><path d="M -5,-5 L 5,5 M 5,-5 L -5,5" fill="rgba(255,255,255, 0.1" stroke="rgba(187, 0, 0, 0.8)" stroke-width="3" transform="translate(246.00000000000003, 77)"></path></g><g class="shot"><title>Jokić, Nikola - Q1 7:59</title><path d="M -5, 0 a 5,5 0 1,0 10,0 a 5,5 0 1,0 -10,0" fill="rgba(255,255,255, 0.1" stroke="rgba(10, 158, 117, 0.8)" stroke-width="3" transform="translate(118, 76)"></path></g><g class="shot"><title>Jokić, Nikola - Q1 5:3</title><path d="M -5, 0 a 5,5 0 1,0 10,0 a 5,5 0 1,0 -10,0" fill="rgba(255,255,255, 0.1" stroke="rgba(10, 158, 117, 0.8)" stroke-width="3" transform="translate(228, 56)"></path></g><g class="shot"><title>Jokić, Nikola - Q1 4:5</title><path d="M -5,-5 L 5,5 M 5,-5 L -5,5" fill="rgba(255,255,255, 0.1" stroke="rgba(187, 0, 0, 0.8)" stroke-width="3" transform="translate(263, 132)"></path></g><g class="shot"><title>Jokić, Nikola - Q1 3:40</title><path d="M -5, 0 a 5,5 0 1,0 10,0 a 5,5 0 1,0 -10,0" fill="rgba(255,255,255, 0.1" stroke="rgba(10, 158, 117, 0.8)" stroke-width="3" transform="translate(256, 211)"></path></g><g class="shot"><title>Jokić, Nikola - Q1 3:7</title><path d="M -5,-5 L 5,5 M 5,-5 L -5,5" fill="rgba(255,255,255, 0.1" stroke="rgba(187, 0, 0, 0.8)" stroke-width="3" transform="translate(257, 46.00000000000001)"></path></g><g class="shot"><title>Jokić, Nikola - Q1 0:1</title><path d="M -5,-5 L 5,5 M 5,-5 L -5,5" fill="rgba(255,255,255, 0.1" stroke="rgba(187, 0, 0, 0.8)" stroke-width="3" transform="translate(121, 56)"></path></g><g class="shot"><title>Jokić, Nikola - Q2 5:6</title><path d="M -5, 0 a 5,5 0 1,0 10,0 a 5,5 0 1,0 -10,0" fill="rgba(255,255,255, 0.1" stroke="rgba(10, 158, 117, 0.8)" stroke-width="3" transform="translate(393, 103)"></path></g><g class="shot"><title>Jokić, Nikola - Q2 4:13</title><path d="M -5, 0 a 5,5 0 1,0 10,0 a 5,5 0 1,0 -10,0" fill="rgba(255,255,255, 0.1" stroke="rgba(10, 158, 117, 0.8)" stroke-width="3" transform="translate(260, 122)"></path></g><g class="shot"><title>Jokić, Nikola - Q2 0:37</title><path d="M -5, 0 a 5,5 0 1,0 10,0 a 5,5 0 1,0 -10,0" fill="rgba(255,255,255, 0.1" stroke="rgba(10, 158, 117, 0.8)" stroke-width="3" transform="translate(228, 96)"></path></g><g class="shot"><title>Jokić, Nikola - Q2 0:1</title><path d="M -5, 0 a 5,5 0 1,0 10,0 a 5,5 0 1,0 -10,0" fill="rgba(255,255,255, 0.1" stroke="rgba(10, 158, 117, 0.8)" stroke-width="3" transform="translate(93.00000000000001, 418)"></path></g><g class="shot"><title>Jokić, Nikola - Q3 10:40</title><path d="M -5, 0 a 5,5 0 1,0 10,0 a 5,5 0 1,0 -10,0" fill="rgba(255,255,255, 0.1" stroke="rgba(10, 158, 117, 0.8)" stroke-width="3" transform="translate(249, 62)"></path></g><g class="shot"><title>Jokić, Nikola - Q3 9:33</title><path d="M -5, 0 a 5,5 0 1,0 10,0 a 5,5 0 1,0 -10,0" fill="rgba(255,255,255, 0.1" stroke="rgba(10, 158, 117, 0.8)" stroke-width="3" transform="translate(174, 87)"></path></g><g class="shot"><title>Jokić, Nikola - Q3 9:7</title><path d="M -5, 0 a 5,5 0 1,0 10,0 a 5,5 0 1,0 -10,0" fill="rgba(255,255,255, 0.1" stroke="rgba(10, 158, 117, 0.8)" stroke-width="3" transform="translate(249, 135)"></path></g><g class="shot"><title>Jokić, Nikola - Q3 7:59</title><path d="M -5,-5 L 5,5 M 5,-5 L -5,5" fill="rgba(255,255,255, 0.1" stroke="rgba(187, 0, 0, 0.8)" stroke-width="3" transform="translate(373, 51.99999999999999)"></path></g><g class="shot"><title>Jokić, Nikola - Q3 7:1</title><path d="M -5, 0 a 5,5 0 1,0 10,0 a 5,5 0 1,0 -10,0" fill="rgba(255,255,255, 0.1" stroke="rgba(10, 158, 117, 0.8)" stroke-width="3" transform="translate(184, 301)"></path></g><g class="shot"><title>Jokić, Nikola - Q3 6:9</title><path d="M -5,-5 L 5,5 M 5,-5 L -5,5" fill="rgba(255,255,255, 0.1" stroke="rgba(187, 0, 0, 0.8)" stroke-width="3" transform="translate(279, 144)"></path></g><g class="shot"><title>Jokić, Nikola - Q3 6:5</title><path d="M -5,-5 L 5,5 M 5,-5 L -5,5" fill="rgba(255,255,255, 0.1" stroke="rgba(187, 0, 0, 0.8)" stroke-width="3" transform="translate(250, 50)"></path></g><g class="shot"><title>Jokić, Nikola - Q3 4:13</title><path d="M -5,-5 L 5,5 M 5,-5 L -5,5" fill="rgba(255,255,255, 0.1" stroke="rgba(187, 0, 0, 0.8)" stroke-width="3" transform="translate(421.99999999999994, 237.99999999999997)"></path></g><g class="shot"><title>Jokić, Nikola - Q3 3:51</title><path d="M -5, 0 a 5,5 0 1,0 10,0 a 5,5 0 1,0 -10,0" fill="rgba(255,255,255, 0.1" stroke="rgba(10, 158, 117, 0.8)" stroke-width="3" transform="translate(255, 114.00000000000001)"></path></g><g class="shot"><title>Jokić, Nikola - Q3 2:36</title><path d="M -5,-5 L 5,5 M 5,-5 L -5,5" fill="rgba(255,255,255, 0.1" stroke="rgba(187, 0, 0, 0.8)" stroke-width="3" transform="translate(256, 142)"></path></g><g class="shot"><title>Jokić, Nikola - Q3 2:0</title><path d="M -5,-5 L 5,5 M 5,-5 L -5,5" fill="rgba(255,255,255, 0.1" stroke="rgba(187, 0, 0, 0.8)" stroke-width="3" transform="translate(232.00000000000003, 304)"></path></g><g class="shot"><title>Jokić, Nikola - Q3 1:39</title><path d="M -5, 0 a 5,5 0 1,0 10,0 a 5,5 0 1,0 -10,0" fill="rgba(255,255,255, 0.1" stroke="rgba(10, 158, 117, 0.8)" stroke-width="3" transform="translate(237, 89)"></path></g><g class="shot"><title>Jokić, Nikola - Q4 7:2</title><path d="M -5, 0 a 5,5 0 1,0 10,0 a 5,5 0 1,0 -10,0" fill="rgba(255,255,255, 0.1" stroke="rgba(10, 158, 117, 0.8)" stroke-width="3" transform="translate(250, 62)"></path></g><g class="shot"><title>Jokić, Nikola - Q4 5:26</title><path d="M -5,-5 L 5,5 M 5,-5 L -5,5" fill="rgba(255,255,255, 0.1" stroke="rgba(187, 0, 0, 0.8)" stroke-width="3" transform="translate(115, 275)"></path></g><g class="shot"><title>Jokić, Nikola - Q4 4:9</title><path d="M -5,-5 L 5,5 M 5,-5 L -5,5" fill="rgba(255,255,255, 0.1" stroke="rgba(187, 0, 0, 0.8)" stroke-width="3" transform="translate(255, 115)"></path></g><g class="shot"><title>Jokić, Nikola - Q4 4:7</title><path d="M -5, 0 a 5,5 0 1,0 10,0 a 5,5 0 1,0 -10,0" fill="rgba(255,255,255, 0.1" stroke="rgba(10, 158, 117, 0.8)" stroke-width="3" transform="translate(250, 50)"></path></g><g class="shot"><title>Jokić, Nikola - Q4 3:18</title><path d="M -5, 0 a 5,5 0 1,0 10,0 a 5,5 0 1,0 -10,0" fill="rgba(255,255,255, 0.1" stroke="rgba(10, 158, 117, 0.8)" stroke-width="3" transform="translate(249, 62)"></path></g></g><g class="watermark" transform="translate(520, 520)"><text dx="-5" dy="-5" font-family="Roboto" font-size="22px" font-weight="600" text-anchor="end">NBA.com</text></g></svg><svg class="CromFiltersAdd_icon__xnCDc" data-no-icon="true" fill="currentColor" height="24" role="presentation" stroke-linecap="round" stroke-linejoin="round" viewbox="0 0 24 24" width="24" xmlns="http://www.w3.org/2000/svg"><path d="M5.5 5h13a1 1 0 0 1 .5 1.5L14 12v7l-4-3v-4L5 6.5A1 1 0 0 1 5.5 5"></path></svg><svg class="EventsTable_play__dtRDi" data-no-icon="true" fill="none" height="14" role="presentation" viewbox="0 0 14 14" width="14" xmlns="http://www.w3.org/2000/svg"><circle cx="7" cy="7" fill="#FBCD44" r="7"></circle><path d="M10.15 7.35001L5.25 10.5L5.25 4.20001L10.15 7.35001Z" fill="black"></path></svg><svg class="EventsTable_play__dtRDi" data-no-icon="true" fill="none" height="14" role="presentation" viewbox="0 0 14 14" width="14" xmlns="http://www.w3.org/2000/svg"><circle cx="7" cy="7" fill="#FBCD44" r="7"></circle><path d="M10.15 7.35001L5.25 10.5L5.25 4.20001L10.15 7.35001Z" fill="black"></path></svg><svg class="EventsTable_play__dtRDi" data-no-icon="true" fill="none" height="14" role="presentation" viewbox="0 0 14 14" width="14" xmlns="http://www.w3.org/2000/svg"><circle cx="7" cy="7" fill="#FBCD44" r="7"></circle><path d="M10.15 7.35001L5.25 10.5L5.25 4.20001L10.15 7.35001Z" fill="black"></path></svg><svg class="EventsTable_play__dtRDi" data-no-icon="true" fill="none" height="14" role="presentation" viewbox="0 0 14 14" width="14" xmlns="http://www.w3.org/2000/svg"><circle cx="7" cy="7" fill="#FBCD44" r="7"></circle><path d="M10.15 7.35001L5.25 10.5L5.25 4.20001L10.15 7.35001Z" fill="black"></path></svg><svg class="EventsTable_play__dtRDi" data-no-icon="true" fill="none" height="14" role="presentation" viewbox="0 0 14 14" width="14" xmlns="http://www.w3.org/2000/svg"><circle cx="7" cy="7" fill="#FBCD44" r="7"></circle><path d="M10.15 7.35001L5.25 10.5L5.25 4.20001L10.15 7.35001Z" fill="black"></path></svg><svg class="EventsTable_play__dtRDi" data-no-icon="true" fill="none" height="14" role="presentation" viewbox="0 0 14 14" width="14" xmlns="http://www.w3.org/2000/svg"><circle cx="7" cy="7" fill="#FBCD44" r="7"></circle><path d="M10.15 7.35001L5.25 10.5L5.25 4.20001L10.15 7.35001Z" fill="black"></path></svg><svg class="EventsTable_play__dtRDi" data-no-icon="true" fill="none" height="14" role="presentation" viewbox="0 0 14 14" width="14" xmlns="http://www.w3.org/2000/svg"><circle cx="7" cy="7" fill="#FBCD44" r="7"></circle><path d="M10.15 7.35001L5.25 10.5L5.25 4.20001L10.15 7.35001Z" fill="black"></path></svg><svg class="EventsTable_play__dtRDi" data-no-icon="true" fill="none" height="14" role="presentation" viewbox="0 0 14 14" width="14" xmlns="http://www.w3.org/2000/svg"><circle cx="7" cy="7" fill="#FBCD44" r="7"></circle><path d="M10.15 7.35001L5.25 10.5L5.25 4.20001L10.15 7.35001Z" fill="black"></path></svg><svg class="EventsTable_play__dtRDi" data-no-icon="true" fill="none" height="14" role="presentation" viewbox="0 0 14 14" width="14" xmlns="http://www.w3.org/2000/svg"><circle cx="7" cy="7" fill="#FBCD44" r="7"></circle><path d="M10.15 7.35001L5.25 10.5L5.25 4.20001L10.15 7.35001Z" fill="black"></path></svg><svg class="EventsTable_play__dtRDi" data-no-icon="true" fill="none" height="14" role="presentation" viewbox="0 0 14 14" width="14" xmlns="http://www.w3.org/2000/svg"><circle cx="7" cy="7" fill="#FBCD44" r="7"></circle><path d="M10.15 7.35001L5.25 10.5L5.25 4.20001L10.15 7.35001Z" fill="black"></path></svg><svg class="EventsTable_play__dtRDi" data-no-icon="true" fill="none" height="14" role="presentation" viewbox="0 0 14 14" width="14" xmlns="http://www.w3.org/2000/svg"><circle cx="7" cy="7" fill="#FBCD44" r="7"></circle><path d="M10.15 7.35001L5.25 10.5L5.25 4.20001L10.15 7.35001Z" fill="black"></path></svg><svg class="EventsTable_play__dtRDi" data-no-icon="true" fill="none" height="14" role="presentation" viewbox="0 0 14 14" width="14" xmlns="http://www.w3.org/2000/svg"><circle cx="7" cy="7" fill="#FBCD44" r="7"></circle><path d="M10.15 7.35001L5.25 10.5L5.25 4.20001L10.15 7.35001Z" fill="black"></path></svg><svg class="EventsTable_play__dtRDi" data-no-icon="true" fill="none" height="14" role="presentation" viewbox="0 0 14 14" width="14" xmlns="http://www.w3.org/2000/svg"><circle cx="7" cy="7" fill="#FBCD44" r="7"></circle><path d="M10.15 7.35001L5.25 10.5L5.25 4.20001L10.15 7.35001Z" fill="black"></path></svg><svg class="EventsTable_play__dtRDi" data-no-icon="true" fill="none" height="14" role="presentation" viewbox="0 0 14 14" width="14" xmlns="http://www.w3.org/2000/svg"><circle cx="7" cy="7" fill="#FBCD44" r="7"></circle><path d="M10.15 7.35001L5.25 10.5L5.25 4.20001L10.15 7.35001Z" fill="black"></path></svg><svg class="EventsTable_play__dtRDi" data-no-icon="true" fill="none" height="14" role="presentation" viewbox="0 0 14 14" width="14" xmlns="http://www.w3.org/2000/svg"><circle cx="7" cy="7" fill="#FBCD44" r="7"></circle><path d="M10.15 7.35001L5.25 10.5L5.25 4.20001L10.15 7.35001Z" fill="black"></path></svg><svg class="EventsTable_play__dtRDi" data-no-icon="true" fill="none" height="14" role="presentation" viewbox="0 0 14 14" width="14" xmlns="http://www.w3.org/2000/svg"><circle cx="7" cy="7" fill="#FBCD44" r="7"></circle><path d="M10.15 7.35001L5.25 10.5L5.25 4.20001L10.15 7.35001Z" fill="black"></path></svg><svg class="EventsTable_play__dtRDi" data-no-icon="true" fill="none" height="14" role="presentation" viewbox="0 0 14 14" width="14" xmlns="http://www.w3.org/2000/svg"><circle cx="7" cy="7" fill="#FBCD44" r="7"></circle><path d="M10.15 7.35001L5.25 10.5L5.25 4.20001L10.15 7.35001Z" fill="black"></path></svg><svg class="EventsTable_play__dtRDi" data-no-icon="true" fill="none" height="14" role="presentation" viewbox="0 0 14 14" width="14" xmlns="http://www.w3.org/2000/svg"><circle cx="7" cy="7" fill="#FBCD44" r="7"></circle><path d="M10.15 7.35001L5.25 10.5L5.25 4.20001L10.15 7.35001Z" fill="black"></path></svg><svg class="EventsTable_play__dtRDi" data-no-icon="true" fill="none" height="14" role="presentation" viewbox="0 0 14 14" width="14" xmlns="http://www.w3.org/2000/svg"><circle cx="7" cy="7" fill="#FBCD44" r="7"></circle><path d="M10.15 7.35001L5.25 10.5L5.25 4.20001L10.15 7.35001Z" fill="black"></path></svg><svg class="EventsTable_play__dtRDi" data-no-icon="true" fill="none" height="14" role="presentation" viewbox="0 0 14 14" width="14" xmlns="http://www.w3.org/2000/svg"><circle cx="7" cy="7" fill="#FBCD44" r="7"></circle><path d="M10.15 7.35001L5.25 10.5L5.25 4.20001L10.15 7.35001Z" fill="black"></path></svg><svg class="EventsTable_play__dtRDi" data-no-icon="true" fill="none" height="14" role="presentation" viewbox="0 0 14 14" width="14" xmlns="http://www.w3.org/2000/svg"><circle cx="7" cy="7" fill="#FBCD44" r="7"></circle><path d="M10.15 7.35001L5.25 10.5L5.25 4.20001L10.15 7.35001Z" fill="black"></path></svg><svg class="EventsTable_play__dtRDi" data-no-icon="true" fill="none" height="14" role="presentation" viewbox="0 0 14 14" width="14" xmlns="http://www.w3.org/2000/svg"><circle cx="7" cy="7" fill="#FBCD44" r="7"></circle><path d="M10.15 7.35001L5.25 10.5L5.25 4.20001L10.15 7.35001Z" fill="black"></path></svg><svg class="EventsTable_play__dtRDi" data-no-icon="true" fill="none" height="14" role="presentation" viewbox="0 0 14 14" width="14" xmlns="http://www.w3.org/2000/svg"><circle cx="7" cy="7" fill="#FBCD44" r="7"></circle><path d="M10.15 7.35001L5.25 10.5L5.25 4.20001L10.15 7.35001Z" fill="black"></path></svg><svg class="EventsTable_play__dtRDi" data-no-icon="true" fill="none" height="14" role="presentation" viewbox="0 0 14 14" width="14" xmlns="http://www.w3.org/2000/svg"><circle cx="7" cy="7" fill="#FBCD44" r="7"></circle><path d="M10.15 7.35001L5.25 10.5L5.25 4.20001L10.15 7.35001Z" fill="black"></path></svg><svg class="EventsTable_play__dtRDi" data-no-icon="true" fill="none" height="14" role="presentation" viewbox="0 0 14 14" width="14" xmlns="http://www.w3.org/2000/svg"><circle cx="7" cy="7" fill="#FBCD44" r="7"></circle><path d="M10.15 7.35001L5.25 10.5L5.25 4.20001L10.15 7.35001Z" fill="black"></path></svg><svg class="EventsTable_play__dtRDi" data-no-icon="true" fill="none" height="14" role="presentation" viewbox="0 0 14 14" width="14" xmlns="http://www.w3.org/2000/svg"><circle cx="7" cy="7" fill="#FBCD44" r="7"></circle><path d="M10.15 7.35001L5.25 10.5L5.25 4.20001L10.15 7.35001Z" fill="black"></path></svg><svg class="EventsTable_play__dtRDi" data-no-icon="true" fill="none" height="14" role="presentation" viewbox="0 0 14 14" width="14" xmlns="http://www.w3.org/2000/svg"><circle cx="7" cy="7" fill="#FBCD44" r="7"></circle><path d="M10.15 7.35001L5.25 10.5L5.25 4.20001L10.15 7.35001Z" fill="black"></path></svg><svg class="EventsTable_play__dtRDi" data-no-icon="true" fill="none" height="14" role="presentation" viewbox="0 0 14 14" width="14" xmlns="http://www.w3.org/2000/svg"><circle cx="7" cy="7" fill="#FBCD44" r="7"></circle><path d="M10.15 7.35001L5.25 10.5L5.25 4.20001L10.15 7.35001Z" fill="black"></path></svg><svg class="EventsTable_play__dtRDi" data-no-icon="true" fill="none" height="14" role="presentation" viewbox="0 0 14 14" width="14" xmlns="http://www.w3.org/2000/svg"><circle cx="7" cy="7" fill="#FBCD44" r="7"></circle><path d="M10.15 7.35001L5.25 10.5L5.25 4.20001L10.15 7.35001Z" fill="black"></path></svg><svg class="FooterList_footerlistTitleIcon__awE6T" data-no-icon="down" height="17" role="presentation" viewbox="0 0 6 17" width="6" xmlns="http://www.w3.org/2000/svg"><polyline fill="none" points="4.9,1.1 0.9,8.5 4.9,15.9" stroke="currentColor" stroke-linecap="round" stroke-linejoin="round" stroke-miterlimit="10"></polyline></svg><svg class="FooterList_footerlistTitleIcon__awE6T" data-no-icon="down" height="17" role="presentation" viewbox="0 0 6 17" width="6" xmlns="http://www.w3.org/2000/svg"><polyline fill="none" points="4.9,1.1 0.9,8.5 4.9,15.9" stroke="currentColor" stroke-linecap="round" stroke-linejoin="round" stroke-miterlimit="10"></polyline></svg><svg class="FooterList_footerlistTitleIcon__awE6T" data-no-icon="down" height="17" role="presentation" viewbox="0 0 6 17" width="6" xmlns="http://www.w3.org/2000/svg"><polyline fill="none" points="4.9,1.1 0.9,8.5 4.9,15.9" stroke="currentColor" stroke-linecap="round" stroke-linejoin="round" stroke-miterlimit="10"></polyline></svg><svg class="FooterList_footerlistTitleIcon__awE6T" data-no-icon="down" height="17" role="presentation" viewbox="0 0 6 17" width="6" xmlns="http://www.w3.org/2000/svg"><polyline fill="none" points="4.9,1.1 0.9,8.5 4.9,15.9" stroke="currentColor" stroke-linecap="round" stroke-linejoin="round" stroke-miterlimit="10"></polyline></svg><svg class="FooterList_footerlistTitleIcon__awE6T" data-no-icon="down" height="17" role="presentation" viewbox="0 0 6 17" width="6" xmlns="http://www.w3.org/2000/svg"><polyline fill="none" points="4.9,1.1 0.9,8.5 4.9,15.9" stroke="currentColor" stroke-linecap="round" stroke-linejoin="round" stroke-miterlimit="10"></polyline></svg><svg aria-label="Facebook Icon Button" class="" height="22" viewbox="0 0 23 22" width="23" xmlns="http://www.w3.org/2000/svg"><path d="M22.1 11.0C22.1 4.9 17.1 0 11.0 0S0 4.9 0 11.0C0 16.5 4.0 21.1 9.3 22v-7.7h-2.8v-3.1h2.8V8.6c0-2.7 1.6-4.3 4.1-4.3 1.2 0 2.4.216 2.4.216v2.7H14.6c-1.3 0-1.8.853-1.8 1.7v2.0h3.0l-.49 3.2h-2.5V22c5.2-.83 9.3-5.4 9.3-10.9" fill="currentColor" fill-rule="evenodd"></path></svg><svg aria-label="Instagram Icon Button" class="" height="22" viewbox="0 0 22 22" width="22" xmlns="http://www.w3.org/2000/svg"><g fill="currentColor"><path d="M11 0 6.5.1c-1.2.1-2 .2-2.7.5-.7.3-1.4.7-2 1.2A5 5 0 0 0 .5 3.7C.3 4.5.1 5.3.1 6.5L0 11a42.8 42.8 0 0 0 .6 7.2 5 5 0 0 0 1.3 1.9 5 5 0 0 0 1.9 1.3c.7.3 1.5.5 2.7.5l4.5.1 4.5-.1c1.2-.1 2-.2 2.7-.5a5 5 0 0 0 1.9-1.3 5 5 0 0 0 1.3-1.9c.3-.7.5-1.5.5-2.7L22 11l-.1-4.5c-.1-1.2-.2-2-.5-2.7a5 5 0 0 0-1.3-1.9A5 5 0 0 0 18.2.6c-.7-.3-1.5-.5-2.7-.5L11 0zm0 2 4.4.1c1.1 0 1.7.2 2 .4.5.2.9.4 1.3.8s.6.8.8 1.3l.4 2L20 11l-.1 4.4c0 1.1-.2 1.7-.4 2-.2.5-.4.9-.8 1.3s-.8.6-1.3.8l-2 .4-4.4.1H6.6c-1.1 0-1.7-.2-2-.4-.5-.2-.9-.4-1.3-.8s-.6-.8-.8-1.3c-.2-.4-.3-1-.4-2L2 11V6.6c0-1.1.2-1.7.4-2 .2-.6.5-1 .8-1.4l1.3-.8c.4-.2 1-.3 2-.4H11z"></path><path d="M11 14.5c-2 0-3.6-1.6-3.6-3.6C7.4 9 9 7.4 11 7.4S14.6 9 14.6 11a3.7 3.7 0 0 1-3.6 3.5zm0-9C8 5.5 5.5 8 5.5 11S8 16.5 11 16.5s5.5-2.5 5.5-5.5S14 5.5 11 5.5zm6.9-.4c0 .7-.6 1.3-1.3 1.3s-1.3-.6-1.3-1.3c0-.7.6-1.3 1.3-1.3s1.3.6 1.3 1.3"></path></g></svg><svg aria-label="SnapChat Icon Button" class="" height="22" viewbox="0 0 22 22" width="22" xmlns="http://www.w3.org/2000/svg"><path d="M18.5 0A3.5 3.5 0 0 1 22 3.5v15a3.5 3.5 0 0 1-3.5 3.5h-15A3.5 3.5 0 0 1 0 18.5v-15A3.5 3.5 0 0 1 3.5 0h15zm-7.4 3.4h-.3C10.2 3.4 8 3.6 7 6c-.3.7-.3 2.1-.2 3.2v.5s-.1.2-.5.2a2 2 0 0 1-.8-.3.4.4 0 0 0-.2 0c-.2 0-.6.2-.6.4s0 .4.7.7h.2c.4.2 1 .4 1 .7.2.2.1.5 0 .8 0 0-1.1 2.5-3.4 2.9a.2.2 0 0 0-.2.1.3.3 0 0 0 0 .1c.1.3.6.6 2 .8.2 0 .3.2.3.5l.1.4.3.2h.3l1-.2h.6c.4.1.8.4 1.2.7.6.4 1.2.9 2.2.9h.1c1 0 1.6-.5 2.2-.9.5-.3.8-.6 1.3-.6a4 4 0 0 1 1.6 0h.3l.2-.1.1-.4c.1-.3.1-.5.3-.5 1.5-.2 2-.5 2-.8a.2.2 0 0 0-.1-.2c-2.3-.4-3.4-2.8-3.4-3-.2-.2-.2-.5-.1-.7.2-.3.7-.5 1-.6a3.9 3.9 0 0 0 .2 0c.6-.3.8-.6.8-.7 0-.2-.2-.4-.4-.5a.7.7 0 0 0-.3 0 .6.6 0 0 0-.2 0 2 2 0 0 1-.8.3c-.3 0-.5-.2-.5-.2v-.4c.1-1.2.2-2.6-.1-3.3a4.2 4.2 0 0 0-4-2.6z" fill="currentColor" fill-rule="evenodd"></path></svg><svg aria-label="TickTok Icon Button" class="" height="22" viewbox="0 0 20 22" width="20" xmlns="http://www.w3.org/2000/svg"><path d="M18.5 4.8A4.1 4.1 0 0 1 14.4.645.6.645 0 0 0 13.7 0H10.3a.644.6 0 0 0-.645.6v14.1a2.4 2.4 0 0 1-2.4 2.4 2.4 2.4 0 0 1-2.4-2.4 2.4 2.4 0 0 1 2.4-2.4.644.6 0 0 0 .645-.644V8.2a.645.6 0 0 0-.645-.645C3.2 7.5 0 10.8 0 14.7 0 18.7 3.2 22 7.2 22c3.9 0 7.2-3.2 7.2-7.2V8.5a8.8 8.8 0 0 0 4.1 1.0.644.6 0 0 0 .645-.644V5.4a.645.6 0 0 0-.645-.644zm-.644 3.4a7.5 7.5 0 0 1-3.8-1.4.644.6 0 0 0-1.0.523v7.4a5.9 5.9 0 0 1-5.9 5.9 5.9 5.9 0 0 1-5.9-5.9 5.9 5.9 0 0 1 5.2-5.8v2.1a3.7 3.7 0 0 0-3.1 3.6 3.7 3.7 0 0 0 3.7 3.7 3.7 3.7 0 0 0 3.7-3.7V1.2h2.2a5.4 5.4 0 0 0 4.7 4.7v2.1z" fill="currentColor" fill-rule="nonzero"></path></svg><svg aria-label="Twitter Icon Button" class="" height="22" viewbox="0 0 1200 1227" width="22" xmlns="http://www.w3.org/2000/svg"><path d="M714.2,519.3L1160.9,0H1055L667.1,450.9L357.3,0H0l468.5,681.8L0,1226.4h105.9l409.6-476.2l327.2,476.2H1200 L714.2,519.3L714.2,519.3z M569.2,687.8l-47.5-67.9L144,79.7h162.6l304.8,436l47.5,67.9l396.2,566.7H892.5L569.2,687.8L569.2,687.8z " fill="currentColor" fill-rule="nonzero"></path></svg><svg aria-label="YouTube Icon Button" class="" height="22" viewbox="0 0 32 22" width="32" xmlns="http://www.w3.org/2000/svg"><path d="M15.6.246c1.2.003 9.7.047 11.9.65a3.8 3.8 0 0 1 2.7 2.7c.602 2.2.646 6.7.65 7.4v.156c-.004.6-.048 5.1-.65 7.4a3.8 3.8 0 0 1-2.7 2.7c-2.2.59-10.4.644-11.9.649h-.457c-1.4-.005-9.7-.059-11.9-.65A3.8 3.8 0 0 1 .65 18.6C.032 16.2.002 11.6 0 11.1v-.07c.002-.452.0-5.1.65-7.4A3.8 3.8 0 0 1 3.3.895C5.6.293 14.1.25 15.3.246zm-3.2 6.2v9.3l8.0-4.6-8.0-4.6z" fill="currentColor" fill-rule="evenodd"></path></svg><svg aria-label="Twitch Icon Button" class="" fill="currentColor" height="28" viewbox="0 0 2400 2800" width="24" xmlns="http://www.w3.org/2000/svg"><path d="M500,0L0,500v1800h600v500l500-500h400l900-900V0H500z M2200,1300l-400,400h-400l-350,350v-350H600V200h1600 V1300z"></path><rect height="600" width="200" x="1700" y="550"></rect><rect height="600" width="200" x="1150" y="550"></rect></svg>